Patient4_TMGait_0pt4_03_left_25_EMG.mot
version=1
nRows=20
nColumns=33
inDegrees=no
endheader
time	1LAddLong	2LGlutMax	3LGlutMed	4LIliopsoas	5LSemiMemb	6LBicFemLong	7LRecFem	8LVastMed	9LVastLat	10LGasMed	11LTibAnt	12lTibPost	13LPeroneusLong	14LSol	15LExtDigLong	16LFlexDigLong	17RAddLong	18RGlutMax	19RGlutMed	20RIliopsoas	21RSemiMemb	22RBicFemLong	23RRecFem	24RVastMed	25RVastLat	26RGasMed	27RTibAnt	28RTibPost	29RPeroneusLong	30RSol	31RExtDigLong	32RFlexDigLong
33.332	-0.019379	-0.067444	0.10513	0.005493	-0.062408	0.091553	0.082245	-0.002594	-0.10361	-0.027313	-0.006104	0.031128	-0.004425	0.079956	0.056458	-0.005035	-0.039673	0.070953	-0.1207	0.090332	-0.011597	0.10986	0.42435	-0.034637	0.01709	-0.005798	0.15823	-0.00412	-0.053406	-0.081787	-0.003052	-0.01236
33.333	-0.008087	-0.059814	0.12161	0.009155	-0.007324	0.10757	0.095215	0.008087	-0.3595	-0.008392	0.014954	0.027924	0.003662	0.12543	0.13382	-0.016632	-0.042419	0.067291	-0.12039	0.1088	-0.020142	0.15305	0.40573	-0.035248	0.015411	0.000458	-0.070953	0	-0.01358	-0.12802	-0.002289	-0.012817
33.334	0.032959	-0.02533	0.1561	0.034637	0.023193	-0.15411	-0.018158	0.013275	-0.3508	-0.004272	0.071259	0.02594	-0.003662	0.06485	0.23895	-0.054321	-0.023804	0.026703	-0.15823	0.04364	0.005341	0.14374	0.34286	-0.027313	0.028687	0.003204	0.031281	-0.002594	0.040436	-0.098114	-0.005493	-0.010071
33.335	0.057526	0.016632	0.074158	0.017242	-0.003967	-0.39658	-0.11643	0.03067	-0.12375	0.025787	0.090179	0.020905	-0.004425	0.004425	0.048676	-0.055084	-0.050201	-0.004578	-0.099792	-0.060425	0.000763	0.0914	0.35904	-0.013123	0.027771	0.001373	-0.087433	-0.003204	0.013428	-0.084839	-0.009766	-0.012817
33.336	0.054016	0.056305	-0.03952	-0.012817	-0.02533	-0.28198	-0.14221	0.037079	0.043488	0.050507	0.023804	0.024261	0.034637	-0.041199	0.21896	-0.041809	-0.077362	0.024719	-0.041962	-0.16159	-0.024872	0.074463	0.38452	-0.06546	0.009918	-0.003815	0.024109	-0.006561	-0.019226	-0.023193	-0.001221	-0.016632
33.337	0.031128	0.087433	-0.20355	-0.010071	-0.033112	-0.103	-0.076904	0.014954	0.11047	0.007019	0.040894	0.021515	0.067596	0.023804	0.17624	-0.003357	-0.074463	0.002441	-0.049438	-0.001526	0.026398	0.005798	0.38544	-0.016937	-0.003357	-0.003052	0.046539	-0.000153	0.05127	0.04715	-0.00351	-0.014343
33.338	0.02533	0.10269	-0.25284	-0.001221	-0.046539	0.047302	-0.1004	-0.01236	0.016327	-0.0383	-0.004883	0.01358	0.04837	0.13168	0.042877	0.00351	-0.041809	-0.010071	-0.068207	0.18143	0.024414	-0.1503	0.3949	0.017548	-0.000763	-0.001984	-0.11917	0.027618	0.001526	-0.00885	-0.005188	-0.020142
33.339	0.011292	0.093384	0.028534	-0.001678	-0.066376	0.11398	-0.04303	-0.026398	-0.030212	0.003967	-0.008545	0.009766	0.003815	0.10223	-0.019073	0.000916	0.02655	-0.014343	0.024109	0.1828	0.046387	-0.16892	0.36621	0.026703	0.028076	-0.000916	-0.080719	0.046844	0.039063	-0.059509	-0.00824	-0.022736
33.34	0.006409	0.05188	0.29358	0.007477	-0.0354	0.093384	-0.04364	-0.036926	-0.007324	0.047913	-0.019684	0.00061	-0.021667	-0.030212	-0.046387	0.000458	0.02594	-0.042572	0.002289	0.13611	0.075836	-0.077972	0.36835	0.03006	0.041199	-0.000916	0.066528	-0.26672	0.027161	-0.03891	-0.001221	-0.014954
33.341	0.004883	0.071564	0.20004	-0.011597	0.027771	0.06134	-0.071869	-0.027008	-0.027466	0.072632	-0.012512	0.003967	-0.004272	-0.11261	-0.06012	0.014038	0.057526	-0.09079	0.075378	0.050964	0.067444	-0.056763	0.37094	0.027313	0.0177	-0.005341	-0.026093	0.071259	0.060883	0.027618	-0.005951	-0.016937
33.342	-0.008545	0.19028	0.27527	-0.029297	0.001221	0.066376	-0.075836	-0.021057	-0.17792	0.08606	0.023041	0.002747	-0.029755	-0.087433	-0.12482	0.000916	0.055084	-0.10132	0.019989	0.03067	0.050049	-0.019073	0.38513	-0.003357	0.022736	-0.001221	-0.091248	0.056305	0.070953	0.054474	-0.005493	-0.010071
33.343	-0.066833	0.30411	0.26047	0.015259	-0.011139	0.052338	-0.10223	-0.014343	-0.15152	0.070343	0.10346	0.003357	-0.062714	-0.010376	-0.11108	0.014496	0.028076	-0.10788	-0.12833	-0.062103	0.010223	0.055084	0.36667	0.00061	0.02243	0.000458	-0.011292	0.017395	0.091553	0.067596	-0.005188	-0.011597
33.344	0.022736	0.3685	0.1384	0.030975	-0.012054	0.007019	-0.17975	0.000458	-0.086365	0.046082	0.091095	-0.003815	-0.049896	0.052338	-0.090027	-0.17258	0.001221	-0.09903	-0.084381	-0.083923	0.008392	0.038147	0.31952	-0.010681	0.00946	0.001373	0.14999	0.00946	0.05249	-0.083771	-0.003662	-0.011292
33.345	0.017395	0.4039	0.056	0.019226	-0.001526	0.062256	-0.26825	0.011749	-0.068054	0.055389	0.036316	-0.001221	-0.036621	0.13336	0.38116	0.074158	0.010376	-0.13565	-0.043793	-0.056458	-0.023956	0.054932	0.35629	-0.019073	0.015106	0.006561	0.16876	0.001678	0.072174	-0.11826	-0.002594	-0.013275
33.346	0.056915	0.30746	-0.10819	0.027161	-0.001984	0.052032	-0.36926	0.000153	0.050507	0.047913	0.1236	-0.003967	-0.023346	0.18509	0.075836	-0.44632	0.03479	-0.17822	0.046692	-0.03067	-0.007324	-0.020294	0.36804	-0.016327	-0.000305	0.002441	0.27832	-0.000153	0.048676	-0.074921	-0.001984	-0.00824
33.347	0.072784	0.19287	-0.24597	0.014038	-0.017242	0.045471	-0.26291	-0.011902	0.23392	0.056915	0.077972	0.000763	-0.061493	0.24643	0.22812	-0.3215	0.009155	-0.23163	0.023651	-0.009155	-0.015106	-0.1004	0.41672	-0.063629	0.001221	0.004272	0.2771	-0.000305	-0.003815	-0.071411	-0.003967	-0.012665
33.348	-0.012665	0.23148	-0.041504	0.002136	-0.017395	0.035706	-0.16647	-0.008392	0.20187	0.044708	0.070343	0.00885	-0.054626	0.26688	0.28686	1.1909	0.010681	-0.28198	-0.24963	-0.016327	-0.02533	-0.11917	0.40939	-0.11581	-0.015106	0.004272	-0.10239	0.005035	-0.014954	-0.10315	0.000153	-0.019379
33.349	-0.017395	0.20584	-0.089569	-0.007324	-0.015259	0.036774	-0.27115	0.014343	0.11612	0.011139	0.24353	0.019684	0.014648	0.24994	-0.017242	0.61218	-0.00473	-0.26276	-0.37537	0.056152	-0.023193	-0.068054	0.41275	-0.028992	-0.014343	-0.001984	-0.27206	-0.003204	0.03952	-0.099335	-0.005188	-0.00061
33.35	-0.023041	0.27222	-0.15564	-0.014191	-0.019379	0.029602	-0.26474	0.029755	0.11124	0.004883	0.054016	0.004425	0.055237	0.10651	0.023499	-0.38406	0.022278	-0.28427	-0.29892	0.065308	-0.011902	-0.045166	0.39459	-0.070953	-0.003662	-0.006561	-0.17181	-0.000305	0.21316	-0.090332	-0.001221	-0.006866
33.351	-0.018921	0.2179	-0.25009	0.006561	-0.070496	0.054779	-0.26871	0.027618	0.12146	0.028076	-0.088654	0.001984	0.083771	-0.1889	-0.17151	0.14664	0.042267	-0.29617	-0.16113	0.053864	-0.04715	-0.06134	0.37705	-0.11917	-0.037231	-0.007935	-0.19318	0.000153	0.23483	-0.084381	-0.002136	-0.011902
